<svg width="376" height="82" viewBox="0 0 376 82" fill="none" xmlns="http://www.w3.org/2000/svg">
<mask id="path-1-outside-1_2_5" maskUnits="userSpaceOnUse" x="-3" y="-3" width="382" height="88" fill="black">
<rect fill="white" x="-3" y="-3" width="382" height="88"/>
<path d="M32.232 40.456C40.008 37.192 45.48 29.896 45.48 22.12C45.48 10.888 39.048 4.744 27.912 4.744V59.848C27.912 64.744 31.464 68.68 36.168 68.68L35.208 73H1.896L0.936 68.68C5.544 68.68 9.288 64.552 9.288 59.848V14.056C9.288 9.44799 5.352 4.744 0.84 4.744L1.8 0.711998H33.096C53.64 0.711998 66.408 8.96799 66.408 22.216C66.408 34.984 47.496 44.584 32.232 44.776V40.456ZM100.577 11.368C117.473 11.368 128.993 24.424 128.993 42.664C128.993 61 117.473 74.056 100.577 74.056C83.6813 74.056 72.1613 61 72.1613 42.664C72.1613 24.424 83.6813 11.368 100.577 11.368ZM100.577 69.832C106.913 69.832 110.753 59.656 110.753 42.664C110.753 25.768 106.913 15.592 100.577 15.592C94.2413 15.592 90.4013 25.768 90.4013 42.664C90.4013 59.656 94.2413 69.832 100.577 69.832ZM94.4333 42.664L100.577 34.6L106.721 42.664L100.577 50.728L94.4333 42.664Z"/>
<path d="M204.098 62.632C207.362 70.984 210.242 78.088 216.674 79.144C213.794 80.584 210.722 81.256 207.362 81.256C188.258 81.256 183.074 66.76 177.314 53.416C173.57 44.008 170.114 35.176 162.722 33.928V59.848C162.722 64.744 166.274 68.872 170.978 68.872L170.018 73H136.706L135.746 68.872C140.258 68.872 144.098 64.456 144.098 59.848V13.576C144.098 8.96799 140.546 4.648 135.746 4.648L136.706 0.615999H170.018L170.978 4.648C165.986 4.648 162.722 8.776 162.722 13.576V29.32L179.618 13.96C182.306 11.464 183.746 9.352 183.746 7.62399C183.746 5.89599 182.402 4.648 180.29 4.648L181.25 0.615999H203.906L204.866 4.648C198.914 4.648 193.154 7.528 186.818 13.192L168.194 30.088C192.098 32.872 198.914 49.384 204.098 62.632ZM241.083 61.672C241.083 65.704 244.155 68.776 248.091 68.776L247.131 73H218.715L217.755 68.776C221.307 68.776 224.763 65.704 224.763 61.672V23.56C224.763 19.528 221.307 16.552 217.755 16.552L218.715 12.328H247.131L248.091 16.552C244.155 16.552 241.083 19.528 241.083 23.56V61.672ZM313.561 12.328L314.521 16.552C310.969 16.552 307.513 19.624 307.513 23.656V73H289.657L265.081 19.336V61.672C265.081 65.704 268.153 68.776 272.089 68.776L271.129 73H254.809L253.849 68.776C257.401 68.776 260.857 65.704 260.857 61.672V23.56C260.857 19.528 257.401 16.552 253.849 16.552L254.809 12.328H279.865L303.577 64.264V23.656C303.577 19.624 300.505 16.552 296.569 16.552L297.529 12.328H313.561ZM374.196 40.456L375.156 44.68C372.084 44.68 369.108 47.656 369.108 51.688V73C362.868 71.176 355.86 74.056 347.22 74.056C329.556 74.056 319.38 61 319.38 42.664C319.38 24.424 332.052 11.368 349.14 11.368C355.572 11.368 360.564 14.056 366.516 12.904L369.108 31.72H364.596C362.388 21.736 357.396 15.592 351.156 15.592C342.804 15.592 337.62 25.768 337.62 42.664C337.62 59.656 342.228 69.832 349.716 69.832C353.268 69.832 355.188 66.664 355.188 63.496V51.688C355.188 47.656 351.252 44.68 347.22 44.68L348.18 40.456H374.196Z"/>
</mask>
<g filter="url(#filter0_i_2_5)">
<path d="M32.232 40.456C40.008 37.192 45.48 29.896 45.48 22.12C45.48 10.888 39.048 4.744 27.912 4.744V59.848C27.912 64.744 31.464 68.68 36.168 68.68L35.208 73H1.896L0.936 68.68C5.544 68.68 9.288 64.552 9.288 59.848V14.056C9.288 9.44799 5.352 4.744 0.84 4.744L1.8 0.711998H33.096C53.64 0.711998 66.408 8.96799 66.408 22.216C66.408 34.984 47.496 44.584 32.232 44.776V40.456ZM100.577 11.368C117.473 11.368 128.993 24.424 128.993 42.664C128.993 61 117.473 74.056 100.577 74.056C83.6813 74.056 72.1613 61 72.1613 42.664C72.1613 24.424 83.6813 11.368 100.577 11.368ZM100.577 69.832C106.913 69.832 110.753 59.656 110.753 42.664C110.753 25.768 106.913 15.592 100.577 15.592C94.2413 15.592 90.4013 25.768 90.4013 42.664C90.4013 59.656 94.2413 69.832 100.577 69.832ZM94.4333 42.664L100.577 34.6L106.721 42.664L100.577 50.728L94.4333 42.664Z" fill="url(#paint0_linear_2_5)"/>
<path d="M204.098 62.632C207.362 70.984 210.242 78.088 216.674 79.144C213.794 80.584 210.722 81.256 207.362 81.256C188.258 81.256 183.074 66.76 177.314 53.416C173.57 44.008 170.114 35.176 162.722 33.928V59.848C162.722 64.744 166.274 68.872 170.978 68.872L170.018 73H136.706L135.746 68.872C140.258 68.872 144.098 64.456 144.098 59.848V13.576C144.098 8.96799 140.546 4.648 135.746 4.648L136.706 0.615999H170.018L170.978 4.648C165.986 4.648 162.722 8.776 162.722 13.576V29.32L179.618 13.96C182.306 11.464 183.746 9.352 183.746 7.62399C183.746 5.89599 182.402 4.648 180.29 4.648L181.25 0.615999H203.906L204.866 4.648C198.914 4.648 193.154 7.528 186.818 13.192L168.194 30.088C192.098 32.872 198.914 49.384 204.098 62.632ZM241.083 61.672C241.083 65.704 244.155 68.776 248.091 68.776L247.131 73H218.715L217.755 68.776C221.307 68.776 224.763 65.704 224.763 61.672V23.56C224.763 19.528 221.307 16.552 217.755 16.552L218.715 12.328H247.131L248.091 16.552C244.155 16.552 241.083 19.528 241.083 23.56V61.672ZM313.561 12.328L314.521 16.552C310.969 16.552 307.513 19.624 307.513 23.656V73H289.657L265.081 19.336V61.672C265.081 65.704 268.153 68.776 272.089 68.776L271.129 73H254.809L253.849 68.776C257.401 68.776 260.857 65.704 260.857 61.672V23.56C260.857 19.528 257.401 16.552 253.849 16.552L254.809 12.328H279.865L303.577 64.264V23.656C303.577 19.624 300.505 16.552 296.569 16.552L297.529 12.328H313.561ZM374.196 40.456L375.156 44.68C372.084 44.68 369.108 47.656 369.108 51.688V73C362.868 71.176 355.86 74.056 347.22 74.056C329.556 74.056 319.38 61 319.38 42.664C319.38 24.424 332.052 11.368 349.14 11.368C355.572 11.368 360.564 14.056 366.516 12.904L369.108 31.72H364.596C362.388 21.736 357.396 15.592 351.156 15.592C342.804 15.592 337.62 25.768 337.62 42.664C337.62 59.656 342.228 69.832 349.716 69.832C353.268 69.832 355.188 66.664 355.188 63.496V51.688C355.188 47.656 351.252 44.68 347.22 44.68L348.18 40.456H374.196Z" fill="url(#paint1_linear_2_5)"/>
</g>
<path d="M32.232 40.456L31.0709 37.6898L29.232 38.4617V40.456H32.232ZM27.912 4.744V1.744H24.912V4.744H27.912ZM36.168 68.68L39.0966 69.3308L39.9078 65.68H36.168V68.68ZM35.208 73V76H37.6145L38.1366 73.6508L35.208 73ZM1.896 73L-1.03256 73.6508L-0.510514 76H1.896V73ZM0.936 68.68V65.68H-2.80385L-1.99256 69.3308L0.936 68.68ZM0.84 4.744L-2.07842 4.04914L-2.95815 7.744H0.84V4.744ZM1.8 0.711998V-2.288H-0.569576L-1.11842 0.0171365L1.8 0.711998ZM32.232 44.776H29.232V47.814L32.2697 47.7758L32.232 44.776ZM33.3931 43.2222C42.0814 39.5752 48.48 31.309 48.48 22.12H42.48C42.48 28.483 37.9346 34.8087 31.0709 37.6898L33.3931 43.2222ZM48.48 22.12C48.48 15.9362 46.698 10.7291 42.9718 7.07736C39.2552 3.43507 34.016 1.744 27.912 1.744V7.744C32.9441 7.744 36.4888 9.12493 38.7722 11.3626C41.046 13.5909 42.48 17.0718 42.48 22.12H48.48ZM24.912 4.744V59.848H30.912V4.744H24.912ZM24.912 59.848C24.912 66.1757 29.5907 71.68 36.168 71.68V65.68C33.3373 65.68 30.912 63.3123 30.912 59.848H24.912ZM33.2394 68.0292L32.2794 72.3492L38.1366 73.6508L39.0966 69.3308L33.2394 68.0292ZM35.208 70H1.896V76H35.208V70ZM4.82456 72.3492L3.86456 68.0292L-1.99256 69.3308L-1.03256 73.6508L4.82456 72.3492ZM0.936 71.68C7.39244 71.68 12.288 66.0105 12.288 59.848H6.288C6.288 63.0935 3.69556 65.68 0.936 65.68V71.68ZM12.288 59.848V14.056H6.288V59.848H12.288ZM12.288 14.056C12.288 10.93 10.9732 7.91416 9.00417 5.6856C7.03677 3.45894 4.15929 1.744 0.84 1.744V7.744C2.03271 7.744 3.37923 8.38106 4.50784 9.65839C5.63477 10.9338 6.288 12.574 6.288 14.056H12.288ZM3.75842 5.43886L4.71842 1.40686L-1.11842 0.0171365L-2.07842 4.04914L3.75842 5.43886ZM1.8 3.712H33.096V-2.288H1.8V3.712ZM33.096 3.712C43.022 3.712 50.7169 5.7149 55.8284 9.01611C60.8252 12.2432 63.408 16.7159 63.408 22.216H69.408C69.408 14.4681 65.6068 8.18877 59.0836 3.97588C52.6751 -0.162906 43.714 -2.288 33.096 -2.288V3.712ZM63.408 22.216C63.408 27.0331 59.784 31.833 53.4896 35.6461C47.307 39.3914 39.2859 41.687 32.1943 41.7762L32.2697 47.7758C40.4421 47.673 49.509 45.0726 56.5984 40.7779C63.576 36.551 69.408 30.1669 69.408 22.216H63.408ZM35.232 44.776V40.456H29.232V44.776H35.232ZM94.4333 42.664L92.047 40.8459L90.6617 42.664L92.047 44.4821L94.4333 42.664ZM100.577 34.6L102.964 32.7819L100.577 29.6499L98.191 32.7819L100.577 34.6ZM106.721 42.664L109.108 44.4821L110.493 42.664L109.108 40.8459L106.721 42.664ZM100.577 50.728L98.191 52.5461L100.577 55.6781L102.964 52.5461L100.577 50.728ZM100.577 14.368C108.207 14.368 114.49 17.2944 118.892 22.1834C123.317 27.0975 125.993 34.1718 125.993 42.664H131.993C131.993 32.9162 128.91 24.3425 123.351 18.1686C117.769 11.9695 109.844 8.368 100.577 8.368V14.368ZM125.993 42.664C125.993 51.208 123.314 58.3064 118.89 63.231C114.488 68.1299 108.206 71.056 100.577 71.056V77.056C109.844 77.056 117.77 73.4541 123.353 67.241C128.912 61.0536 131.993 52.456 131.993 42.664H125.993ZM100.577 71.056C92.9481 71.056 86.6665 68.1299 82.2648 63.231C77.8401 58.3064 75.1613 51.208 75.1613 42.664H69.1613C69.1613 52.456 72.2424 61.0536 77.8017 67.241C83.384 73.4541 91.3104 77.056 100.577 77.056V71.056ZM75.1613 42.664C75.1613 34.1718 77.8378 27.0975 82.2627 22.1834C86.6648 17.2944 92.9477 14.368 100.577 14.368V8.368C91.3108 8.368 83.3857 11.9695 77.8038 18.1686C72.2447 24.3425 69.1613 32.9162 69.1613 42.664H75.1613ZM100.577 72.832C105.706 72.832 108.977 68.6651 110.85 63.6742C112.783 58.5246 113.753 51.3241 113.753 42.664H107.753C107.753 50.9959 106.804 57.3794 105.233 61.5658C103.602 65.9109 101.785 66.832 100.577 66.832V72.832ZM113.753 42.664C113.753 34.0504 112.782 26.8734 110.849 21.7355C108.975 16.7562 105.704 12.592 100.577 12.592V18.592C101.787 18.592 103.603 19.5158 105.233 23.8485C106.804 28.0226 107.753 34.3816 107.753 42.664H113.753ZM100.577 12.592C95.4506 12.592 92.1791 16.7562 90.3055 21.7355C88.3721 26.8734 87.4013 34.0504 87.4013 42.664H93.4013C93.4013 34.3816 94.3504 28.0226 95.921 23.8485C97.5514 19.5158 99.3679 18.592 100.577 18.592V12.592ZM87.4013 42.664C87.4013 51.3241 88.3718 58.5246 90.3046 63.6742C92.1778 68.6651 95.4487 72.832 100.577 72.832V66.832C99.3698 66.832 97.5527 65.9109 95.9219 61.5658C94.3507 57.3794 93.4013 50.9959 93.4013 42.664H87.4013ZM96.8195 44.4821L102.964 36.4181L98.191 32.7819L92.047 40.8459L96.8195 44.4821ZM98.191 36.4181L104.335 44.4821L109.108 40.8459L102.964 32.7819L98.191 36.4181ZM104.335 40.8459L98.191 48.9099L102.964 52.5461L109.108 44.4821L104.335 40.8459ZM102.964 48.9099L96.8195 40.8459L92.047 44.4821L98.191 52.5461L102.964 48.9099ZM204.098 62.632L206.892 61.54L206.892 61.5388L204.098 62.632ZM216.674 79.144L218.016 81.8273L226.302 77.6844L217.16 76.1836L216.674 79.144ZM177.314 53.416L174.527 54.5253L174.543 54.5653L174.56 54.6049L177.314 53.416ZM162.722 33.928L163.222 30.9699L159.722 30.3791V33.928H162.722ZM170.978 68.872L173.9 69.5515L174.756 65.872H170.978V68.872ZM170.018 73V76H172.401L172.94 73.6795L170.018 73ZM136.706 73L133.784 73.6795L134.324 76H136.706V73ZM135.746 68.872V65.872H131.969L132.824 69.5515L135.746 68.872ZM135.746 4.648L132.828 3.95314L131.948 7.648H135.746V4.648ZM136.706 0.615999V-2.384H134.337L133.788 -0.0788623L136.706 0.615999ZM170.018 0.615999L172.937 -0.0788618L172.388 -2.384H170.018V0.615999ZM170.978 4.648V7.648H174.776L173.897 3.95314L170.978 4.648ZM162.722 29.32H159.722V36.1017L164.74 31.5398L162.722 29.32ZM179.618 13.96L181.636 16.1798L181.648 16.1692L181.66 16.1584L179.618 13.96ZM180.29 4.648L177.372 3.95314L176.492 7.648H180.29V4.648ZM181.25 0.615999V-2.384H178.881L178.332 -0.0788618L181.25 0.615999ZM203.906 0.615999L206.825 -0.0788618L206.276 -2.384H203.906V0.615999ZM204.866 4.648V7.648H208.664L207.785 3.95314L204.866 4.648ZM186.818 13.192L184.819 10.9554L184.811 10.9627L184.803 10.9701L186.818 13.192ZM168.194 30.088L166.179 27.8661L161.287 32.3038L167.847 33.0679L168.194 30.088ZM201.304 63.724C202.908 67.8271 204.553 72.0041 206.688 75.2668C208.872 78.604 211.83 81.3888 216.188 82.1044L217.16 76.1836C215.087 75.8432 213.388 74.548 211.708 71.9812C209.98 69.3399 208.553 65.7889 206.892 61.54L201.304 63.724ZM215.333 76.4607C212.908 77.6732 210.301 78.256 207.362 78.256V84.256C211.143 84.256 214.681 83.4948 218.016 81.8273L215.333 76.4607ZM207.362 78.256C198.743 78.256 193.501 75.0608 189.64 70.421C185.582 65.545 183.031 59.0906 180.069 52.2271L174.56 54.6049C177.357 61.0854 180.278 68.551 185.028 74.259C189.975 80.2032 196.878 84.256 207.362 84.256V78.256ZM180.102 52.3067C178.264 47.6883 176.357 42.8301 173.916 38.9997C171.451 35.1313 168.12 31.7968 163.222 30.9699L162.223 36.8861C164.717 37.3072 166.81 39.0127 168.856 42.2243C170.927 45.4739 172.621 49.7357 174.527 54.5253L180.102 52.3067ZM159.722 33.928V59.848H165.722V33.928H159.722ZM159.722 59.848C159.722 66.0885 164.321 71.872 170.978 71.872V65.872C168.227 65.872 165.722 63.3995 165.722 59.848H159.722ZM168.056 68.1925L167.096 72.3205L172.94 73.6795L173.9 69.5515L168.056 68.1925ZM170.018 70H136.706V76H170.018V70ZM139.628 72.3205L138.668 68.1925L132.824 69.5515L133.784 73.6795L139.628 72.3205ZM135.746 71.872C142.184 71.872 147.098 65.8311 147.098 59.848H141.098C141.098 63.0809 138.333 65.872 135.746 65.872V71.872ZM147.098 59.848V13.576H141.098V59.848H147.098ZM147.098 13.576C147.098 7.62104 142.497 1.648 135.746 1.648V7.648C138.596 7.648 141.098 10.3149 141.098 13.576H147.098ZM138.665 5.34286L139.625 1.31086L133.788 -0.0788623L132.828 3.95314L138.665 5.34286ZM136.706 3.616H170.018V-2.384H136.706V3.616ZM167.1 1.31086L168.06 5.34286L173.897 3.95314L172.937 -0.0788618L167.1 1.31086ZM170.978 1.648C163.988 1.648 159.722 7.48302 159.722 13.576H165.722C165.722 10.069 167.985 7.648 170.978 7.648V1.648ZM159.722 13.576V29.32H165.722V13.576H159.722ZM164.74 31.5398L181.636 16.1798L177.6 11.7402L160.704 27.1002L164.74 31.5398ZM181.66 16.1584C183.098 14.8228 184.317 13.4867 185.195 12.1549C186.057 10.8469 186.746 9.30659 186.746 7.62399H180.746C180.746 7.6694 180.715 8.04909 180.185 8.85306C179.671 9.63325 178.827 10.6012 177.577 11.7616L181.66 16.1584ZM186.746 7.62399C186.746 5.93628 186.068 4.3583 184.792 3.23585C183.544 2.13751 181.93 1.648 180.29 1.648V7.648C180.763 7.648 180.876 7.78249 180.828 7.74014C180.807 7.72162 180.779 7.68652 180.759 7.64204C180.74 7.5986 180.746 7.58511 180.746 7.62399H186.746ZM183.209 5.34286L184.169 1.31086L178.332 -0.0788618L177.372 3.95314L183.209 5.34286ZM181.25 3.616H203.906V-2.384H181.25V3.616ZM200.988 1.31086L201.948 5.34286L207.785 3.95314L206.825 -0.0788618L200.988 1.31086ZM204.866 1.648C197.861 1.648 191.413 5.06089 184.819 10.9554L188.818 15.4286C194.896 9.9951 199.967 7.648 204.866 7.648V1.648ZM184.803 10.9701L166.179 27.8661L170.21 32.3099L188.834 15.4139L184.803 10.9701ZM167.847 33.0679C179.061 34.3739 186.057 38.8406 190.904 44.4062C195.857 50.094 198.697 57.0622 201.305 63.7252L206.892 61.5388C204.315 54.9538 201.155 47.042 195.429 40.4658C189.595 33.7674 181.231 28.5861 168.541 27.1081L167.847 33.0679ZM248.091 68.776L251.016 69.4409L251.849 65.776H248.091V68.776ZM247.131 73V76H249.526L250.056 73.6649L247.131 73ZM218.715 73L215.79 73.6649L216.32 76H218.715V73ZM217.755 68.776V65.776H213.997L214.83 69.4409L217.755 68.776ZM217.755 16.552L214.83 15.8871L213.997 19.552H217.755V16.552ZM218.715 12.328V9.328H216.32L215.79 11.6631L218.715 12.328ZM247.131 12.328L250.056 11.6631L249.526 9.328H247.131V12.328ZM248.091 16.552V19.552H251.849L251.016 15.8871L248.091 16.552ZM238.083 61.672C238.083 67.334 242.471 71.776 248.091 71.776V65.776C245.839 65.776 244.083 64.074 244.083 61.672H238.083ZM245.166 68.1111L244.206 72.3351L250.056 73.6649L251.016 69.4409L245.166 68.1111ZM247.131 70H218.715V76H247.131V70ZM221.64 72.3351L220.68 68.1111L214.83 69.4409L215.79 73.6649L221.64 72.3351ZM217.755 71.776C222.884 71.776 227.763 67.4392 227.763 61.672H221.763C221.763 63.9688 219.73 65.776 217.755 65.776V71.776ZM227.763 61.672V23.56H221.763V61.672H227.763ZM227.763 23.56C227.763 17.7399 222.83 13.552 217.755 13.552V19.552C219.784 19.552 221.763 21.316 221.763 23.56H227.763ZM220.68 17.2169L221.64 12.9929L215.79 11.6631L214.83 15.8871L220.68 17.2169ZM218.715 15.328H247.131V9.328H218.715V15.328ZM244.206 12.9929L245.166 17.2169L251.016 15.8871L250.056 11.6631L244.206 12.9929ZM248.091 13.552C242.525 13.552 238.083 17.8441 238.083 23.56H244.083C244.083 21.2119 245.785 19.552 248.091 19.552V13.552ZM238.083 23.56V61.672H244.083V23.56H238.083ZM313.561 12.328L316.486 11.6631L315.955 9.328H313.561V12.328ZM314.521 16.552V19.552H318.279L317.446 15.8871L314.521 16.552ZM307.513 73V76H310.513V73H307.513ZM289.657 73L286.929 74.2491L287.731 76H289.657V73ZM265.081 19.336L267.808 18.0869L262.081 19.336H265.081ZM272.089 68.776L275.014 69.4409L275.847 65.776H272.089V68.776ZM271.129 73V76H273.523L274.054 73.6649L271.129 73ZM254.809 73L251.883 73.6649L252.414 76H254.809V73ZM253.849 68.776V65.776H250.09L250.923 69.4409L253.849 68.776ZM253.849 16.552L250.923 15.8871L250.09 19.552H253.849V16.552ZM254.809 12.328V9.328H252.414L251.883 11.6631L254.809 12.328ZM279.865 12.328L282.594 11.082L281.793 9.328H279.865V12.328ZM303.577 64.264L300.848 65.51L306.577 64.264H303.577ZM296.569 16.552L293.643 15.8871L292.81 19.552H296.569V16.552ZM297.529 12.328V9.328H295.134L294.603 11.6631L297.529 12.328ZM310.635 12.9929L311.595 17.2169L317.446 15.8871L316.486 11.6631L310.635 12.9929ZM314.521 13.552C309.391 13.552 304.513 17.8888 304.513 23.656H310.513C310.513 21.3592 312.546 19.552 314.521 19.552V13.552ZM304.513 23.656V73H310.513V23.656H304.513ZM307.513 70H289.657V76H307.513V70ZM292.384 71.7509L267.808 18.0869L262.353 20.5851L286.929 74.2491L292.384 71.7509ZM262.081 19.336V61.672H268.081V19.336H262.081ZM262.081 61.672C262.081 67.334 266.469 71.776 272.089 71.776V65.776C269.836 65.776 268.081 64.074 268.081 61.672H262.081ZM269.163 68.1111L268.203 72.3351L274.054 73.6649L275.014 69.4409L269.163 68.1111ZM271.129 70H254.809V76H271.129V70ZM257.734 72.3351L256.774 68.1111L250.923 69.4409L251.883 73.6649L257.734 72.3351ZM253.849 71.776C258.978 71.776 263.857 67.4392 263.857 61.672H257.857C257.857 63.9688 255.823 65.776 253.849 65.776V71.776ZM263.857 61.672V23.56H257.857V61.672H263.857ZM263.857 23.56C263.857 17.7399 258.923 13.552 253.849 13.552V19.552C255.878 19.552 257.857 21.316 257.857 23.56H263.857ZM256.774 17.2169L257.734 12.9929L251.883 11.6631L250.923 15.8871L256.774 17.2169ZM254.809 15.328H279.865V9.328H254.809V15.328ZM277.136 13.574L300.848 65.51L306.306 63.018L282.594 11.082L277.136 13.574ZM306.577 64.264V23.656H300.577V64.264H306.577ZM306.577 23.656C306.577 17.994 302.188 13.552 296.569 13.552V19.552C298.821 19.552 300.577 21.254 300.577 23.656H306.577ZM299.494 17.2169L300.454 12.9929L294.603 11.6631L293.643 15.8871L299.494 17.2169ZM297.529 15.328H313.561V9.328H297.529V15.328ZM374.196 40.456L377.121 39.7911L376.591 37.456H374.196V40.456ZM375.156 44.68V47.68H378.914L378.081 44.0151L375.156 44.68ZM369.108 73L368.266 75.8795L372.108 77.0025V73H369.108ZM366.516 12.904L369.488 12.4946L369.056 9.35677L365.946 9.95866L366.516 12.904ZM369.108 31.72V34.72H372.55L372.08 31.3106L369.108 31.72ZM364.596 31.72L361.667 32.3678L362.187 34.72H364.596V31.72ZM347.22 44.68L344.295 44.0151L343.462 47.68H347.22V44.68ZM348.18 40.456V37.456H345.785L345.255 39.7911L348.18 40.456ZM371.271 41.1209L372.231 45.3449L378.081 44.0151L377.121 39.7911L371.271 41.1209ZM375.156 41.68C370.149 41.68 366.108 46.2917 366.108 51.688H372.108C372.108 49.0203 374.019 47.68 375.156 47.68V41.68ZM366.108 51.688V73H372.108V51.688H366.108ZM369.95 70.1205C366.164 69.014 362.289 69.377 358.659 69.8714C354.879 70.3863 351.274 71.056 347.22 71.056V77.056C351.806 77.056 356.025 76.2857 359.469 75.8166C363.063 75.327 365.812 75.162 368.266 75.8795L369.95 70.1205ZM347.22 71.056C339.186 71.056 333.088 68.1177 328.956 63.2861C324.776 58.3987 322.38 51.3011 322.38 42.664H316.38C316.38 52.3629 319.072 60.9613 324.396 67.1859C329.768 73.4663 337.59 77.056 347.22 77.056V71.056ZM322.38 42.664C322.38 25.9543 333.833 14.368 349.14 14.368V8.368C330.271 8.368 316.38 22.8936 316.38 42.664H322.38ZM349.14 14.368C351.999 14.368 354.493 14.9573 357.451 15.5159C360.309 16.0555 363.519 16.5397 367.086 15.8493L365.946 9.95866C363.561 10.4203 361.299 10.1364 358.565 9.6201C355.931 9.1227 352.713 8.368 349.14 8.368V14.368ZM363.544 13.3134L366.136 32.1294L372.08 31.3106L369.488 12.4946L363.544 13.3134ZM369.108 28.72H364.596V34.72H369.108V28.72ZM367.525 31.0722C366.355 25.78 364.398 21.2608 361.699 17.9993C358.967 14.6983 355.371 12.592 351.156 12.592V18.592C353.181 18.592 355.201 19.5577 357.077 21.8247C358.986 24.1312 360.629 27.676 361.667 32.3678L367.525 31.0722ZM351.156 12.592C345.493 12.592 341.244 16.1344 338.575 21.4448C335.943 26.6825 334.62 33.9743 334.62 42.664H340.62C340.62 34.4577 341.889 28.2135 343.937 24.1392C345.948 20.1376 348.467 18.592 351.156 18.592V12.592ZM334.62 42.664C334.62 51.3661 335.791 58.6339 338.121 63.8449C340.455 69.0622 344.301 72.832 349.716 72.832V66.832C347.643 66.832 345.441 65.5138 343.599 61.3951C341.753 57.2701 340.62 50.9539 340.62 42.664H334.62ZM349.716 72.832C352.491 72.832 354.706 71.5529 356.152 69.6938C357.544 67.9038 358.188 65.6449 358.188 63.496H352.188C352.188 64.5151 351.872 65.4242 351.416 66.0102C351.014 66.5271 350.493 66.832 349.716 66.832V72.832ZM358.188 63.496V51.688H352.188V63.496H358.188ZM358.188 51.688C358.188 45.5265 352.393 41.68 347.22 41.68V47.68C350.111 47.68 352.188 49.7855 352.188 51.688H358.188ZM350.145 45.3449L351.105 41.1209L345.255 39.7911L344.295 44.0151L350.145 45.3449ZM348.18 43.456H374.196V37.456H348.18V43.456Z" fill="url(#paint2_linear_2_5)" mask="url(#path-1-outside-1_2_5)"/>
<defs>
<filter id="filter0_i_2_5" x="0.839996" y="0.615997" width="374.316" height="86.64" filterUnits="userSpaceOnUse" color-interpolation-filters="sRGB">
<feFlood flood-opacity="0" result="BackgroundImageFix"/>
<feBlend mode="normal" in="SourceGraphic" in2="BackgroundImageFix" result="shape"/>
<feColorMatrix in="SourceAlpha" type="matrix" values="0 0 0 0 0 0 0 0 0 0 0 0 0 0 0 0 0 0 127 0" result="hardAlpha"/>
<feMorphology radius="4" operator="erode" in="SourceAlpha" result="effect1_innerShadow_2_5"/>
<feOffset dy="6"/>
<feGaussianBlur stdDeviation="2"/>
<feComposite in2="hardAlpha" operator="arithmetic" k2="-1" k3="1"/>
<feColorMatrix type="matrix" values="0 0 0 0 0 0 0 0 0 0 0 0 0 0 0 0 0 0 0.25 0"/>
<feBlend mode="normal" in2="shape" result="effect1_innerShadow_2_5"/>
</filter>
<linearGradient id="paint0_linear_2_5" x1="187.5" y1="-23" x2="187.5" y2="92" gradientUnits="userSpaceOnUse">
<stop stop-color="#AD0117"/>
<stop offset="1" stop-color="#68000D"/>
</linearGradient>
<linearGradient id="paint1_linear_2_5" x1="187.5" y1="-23" x2="187.5" y2="92" gradientUnits="userSpaceOnUse">
<stop stop-color="#087F00"/>
<stop offset="1" stop-color="#043600"/>
</linearGradient>
<linearGradient id="paint2_linear_2_5" x1="187.5" y1="-23" x2="187.5" y2="92" gradientUnits="userSpaceOnUse">
<stop stop-color="#FFB700"/>
<stop offset="0.5" stop-color="#DAB24C"/>
<stop offset="1" stop-color="#996E00"/>
</linearGradient>
</defs>
</svg>